<?xml version="1.0" encoding="UTF-8"?>
<svg width="173px" height="63px" viewBox="0 0 173 63" version="1.1" xmlns="http://www.w3.org/2000/svg" xmlns:xlink="http://www.w3.org/1999/xlink">
    <!-- Generator: Sketch 44.1 (41455) - http://www.bohemiancoding.com/sketch -->
    <title>Group</title>
    <desc>Created with Sketch.</desc>
    <defs>
        <path d="M74.5673077,42.8813559 L90.4326923,42.8813559 L82.5,55 L74.5673077,42.8813559 Z M21.440678,0 L143.559322,0 L143.559322,-7.10542736e-15 C155.400682,-9.2806498e-15 165,9.5993185 165,21.440678 L165,21.440678 C165,33.2820374 155.400682,42.8813559 143.559322,42.8813559 L21.440678,42.8813559 C9.5993185,42.8813559 1.4501483e-15,33.2820374 0,21.440678 L0,21.440678 L0,21.440678 C-1.4501483e-15,9.5993185 9.5993185,2.17522245e-15 21.440678,0 L21.440678,0 Z" id="path-1"></path>
        <filter x="-4.2%" y="-9.1%" width="108.5%" height="125.5%" filterUnits="objectBoundingBox" id="filter-2">
            <feOffset dx="0" dy="2" in="SourceAlpha" result="shadowOffsetOuter1"></feOffset>
            <feGaussianBlur stdDeviation="2" in="shadowOffsetOuter1" result="shadowBlurOuter1"></feGaussianBlur>
            <feColorMatrix values="0 0 0 0 0.129411765   0 0 0 0 0.129411765   0 0 0 0 0.129411765  0 0 0 0.5 0" type="matrix" in="shadowBlurOuter1"></feColorMatrix>
        </filter>
    </defs>
    <g id="App" stroke="none" stroke-width="1" fill="none" fill-rule="evenodd">
        <g id="Desktop" transform="translate(-606.000000, -411.000000)">
            <g id="Group" transform="translate(610.000000, 413.000000)">
                <g id="Combined-Shape">
                    <use fill="black" fill-opacity="1" filter="url(#filter-2)" xlink:href="#path-1"></use>
                    <use fill="#F07E81" fill-rule="evenodd" xlink:href="#path-1"></use>
                </g>
                <g id="Group-2" transform="translate(16.000000, 11.000000)">
                    <text id="PLACE-SPOT" font-family="HelveticaNeue-Bold, Helvetica Neue" font-size="16" font-weight="bold" letter-spacing="0.08021978" fill="#FFFFFF">
                        <tspan x="0" y="17">PLACE SPOT</tspan>
                    </text>
                    <g id="cancel" transform="translate(112.000000, 0.000000)" stroke="#FFFFFF">
                        <circle id="Oval-3" cx="10.5" cy="10.5" r="10.5"></circle>
                        <g id="icon/cross" transform="translate(9.000000, 7.000000)" stroke-width="2" stroke-linecap="square">
                            <path d="M0,8.12726452 L4.35496126,4" id="Line"></path>
                            <path d="M0,0 L4.35,4" id="Line"></path>
                        </g>
                    </g>
                </g>
            </g>
        </g>
    </g>
</svg>